<svg xmlns="http://www.w3.org/2000/svg" xmlns:xlink="http://www.w3.org/1999/xlink" contentStyleType="text/css" data-diagram-type="ACTIVITY" height="580px" preserveAspectRatio="none" style="width:758px;height:580px;background:#FFFFFF;" version="1.1" viewBox="0 0 758 580" width="758px" zoomAndPan="magnify"><title>BubbleSort ueber newList</title><defs/><g><g class="title" data-source-line="13"><text fill="#000000" font-family="Arial" font-size="14" font-weight="bold" lengthAdjust="spacing" textLength="173.4619" x="291.033" y="33.1318">BubbleSort ueber newList</text></g><ellipse cx="237.0273" cy="57.0986" fill="#222222" rx="10" ry="10" style="stroke:#222222;stroke-width:1;"/><rect fill="#FEFECE" height="33.7988" rx="12.5" ry="12.5" style="stroke:#A80036;stroke-width:0.5;" width="43.0156" x="215.5195" y="87.0986"/><text fill="#000000" font-family="Arial" font-size="12" lengthAdjust="spacing" textLength="23.0156" x="225.5195" y="108.3545">j = 0</text><rect fill="#FEFECE" height="33.7988" rx="12.5" ry="12.5" style="stroke:#A80036;stroke-width:0.5;" width="43.0156" x="215.5195" y="192.7019"/><text fill="#000000" font-family="Arial" font-size="12" lengthAdjust="spacing" textLength="23.0156" x="225.5195" y="213.9578">i = 0</text><polygon fill="#FEFECE" points="237.0273,249.9807,249.0273,261.9807,237.0273,273.9807,225.0273,261.9807,237.0273,249.9807" style="stroke:#A80036;stroke-width:0.5;"/><text fill="#000000" font-family="Arial" font-size="11" lengthAdjust="spacing" textLength="104.2314" x="243.0273" y="247.6497">i &lt; newList.size() - 1?</text><text fill="#000000" font-family="Arial" font-size="11" lengthAdjust="spacing" textLength="14.6738" x="210.3535" y="259.6497">[ja]</text><text fill="#000000" font-family="Arial" font-size="11" lengthAdjust="spacing" textLength="26.9092" x="249.0273" y="259.6497">[nein]</text><rect fill="#FEFECE" height="33.7988" rx="12.5" ry="12.5" style="stroke:#A80036;stroke-width:0.5;" width="218.4629" x="11" y="344.9541"/><text fill="#000000" font-family="Arial" font-size="12" lengthAdjust="spacing" textLength="198.4629" x="21" y="366.21">Tausche Elemente an Index i und i+1</text><polygon fill="#FEFECE" points="120.2314,296.6296,132.2314,308.6296,120.2314,320.6296,108.2314,308.6296,120.2314,296.6296" style="stroke:#A80036;stroke-width:0.5;"/><text fill="#000000" font-family="Arial" font-size="11" lengthAdjust="spacing" textLength="162.0244" x="126.2314" y="294.2986">newList.get(i) &gt; newList.get(i+1)?</text><text fill="#000000" font-family="Arial" font-size="11" lengthAdjust="spacing" textLength="14.6738" x="126.2314" y="330.9475">[ja]</text><text fill="#000000" font-family="Arial" font-size="11" lengthAdjust="spacing" textLength="26.9092" x="132.2314" y="306.2986">[nein]</text><polygon fill="#FEFECE" points="120.2314,403.0774,132.2314,415.0774,120.2314,427.0774,108.2314,415.0774,120.2314,403.0774" style="stroke:#A80036;stroke-width:0.5;"/><rect fill="#FEFECE" height="33.7988" rx="12.5" ry="12.5" style="stroke:#A80036;stroke-width:0.5;" width="36.6816" x="101.8906" y="451.5803"/><text fill="#000000" font-family="Arial" font-size="12" lengthAdjust="spacing" textLength="16.6816" x="111.8906" y="472.8362">i++</text><line style="stroke:#181818;stroke-width:1;" x1="120.2314" x2="237.0273" y1="505.3792" y2="505.3792"/><line style="stroke:#181818;stroke-width:1;" x1="237.0273" x2="237.0273" y1="231.5007" y2="505.3792"/><path d="M456.1836,283.9807 L456.1836,314.8782 L436.1836,318.8782 L456.1836,322.8782 L456.1836,353.7756 A0,0 0 0 0 456.1836,353.7756 L718.5278,353.7756 A0,0 0 0 0 718.5278,353.7756 L718.5278,293.9807 L708.5278,283.9807 L456.1836,283.9807 A0,0 0 0 0 456.1836,283.9807" fill="#E8F8F5" style="stroke:#1ABC9C;stroke-width:0.5;"/><path d="M708.5278,283.9807 L708.5278,293.9807 L718.5278,293.9807 L708.5278,283.9807" fill="#E8F8F5" style="stroke:#1ABC9C;stroke-width:0.5;"/><text fill="#000000" font-family="Arial" font-size="13" lengthAdjust="spacing" textLength="133.6689" x="462.1836" y="301.1746">Quellcode-Kommentar:</text><text fill="#000000" font-family="Arial" font-size="13" lengthAdjust="spacing" textLength="180.6162" x="462.1836" y="316.1233">Optimierung zweite Schleife (-j)</text><text fill="#000000" font-family="Arial" font-size="13" lengthAdjust="spacing" textLength="241.3442" x="462.1836" y="331.072">ist im vorliegenden Code nicht umgesetzt.</text><text fill="#000000" font-family="Arial" font-size="13" lengthAdjust="spacing" textLength="225.8179" x="462.1836" y="346.0208">Innere Bedingung: i &lt; newList.size() - 1</text><rect fill="#FEFECE" height="33.7988" rx="12.5" ry="12.5" style="stroke:#A80036;stroke-width:0.5;" width="164.7207" x="271.4629" y="301.9788"/><text fill="#000000" font-family="Arial" font-size="12" lengthAdjust="spacing" textLength="144.7207" x="281.4629" y="323.2346">System.out.println(newList)</text><rect fill="#FEFECE" height="33.7988" rx="12.5" ry="12.5" style="stroke:#A80036;stroke-width:0.5;" width="36.6816" x="335.4824" y="388.7756"/><text fill="#000000" font-family="Arial" font-size="12" lengthAdjust="spacing" textLength="16.6816" x="345.4824" y="410.0315">j++</text><line style="stroke:#181818;stroke-width:1;" x1="353.8232" x2="237.0273" y1="447.0774" y2="447.0774"/><line style="stroke:#181818;stroke-width:1;" x1="237.0273" x2="237.0273" y1="125.8975" y2="447.0774"/><polygon fill="#FEFECE" points="237.0273,144.3774,249.0273,156.3774,237.0273,168.3774,225.0273,156.3774,237.0273,144.3774" style="stroke:#A80036;stroke-width:0.5;"/><text fill="#000000" font-family="Arial" font-size="11" lengthAdjust="spacing" textLength="88.3384" x="243.0273" y="142.0464">j &lt; newList.size()?</text><text fill="#000000" font-family="Arial" font-size="11" lengthAdjust="spacing" textLength="14.6738" x="243.0273" y="178.6953">[ja]</text><text fill="#000000" font-family="Arial" font-size="11" lengthAdjust="spacing" textLength="26.9092" x="249.0273" y="154.0464">[nein]</text><ellipse cx="237.0273" cy="558.3792" fill="none" rx="11" ry="11" style="stroke:#222222;stroke-width:1;"/><ellipse cx="237.0273" cy="558.3792" fill="#222222" rx="6" ry="6" style="stroke:#222222;stroke-width:1;"/><line style="stroke:#181818;stroke-width:1;" x1="237.0273" x2="237.0273" y1="67.0986" y2="87.0986"/><polygon fill="#181818" points="233.0273,77.0986,237.0273,87.0986,241.0273,77.0986,237.0273,81.0986" style="stroke:#181818;stroke-width:1;"/><line style="stroke:#181818;stroke-width:1;" x1="237.0273" x2="237.0273" y1="120.8975" y2="144.3774"/><polygon fill="#181818" points="233.0273,134.3774,237.0273,144.3774,241.0273,134.3774,237.0273,138.3774" style="stroke:#181818;stroke-width:1;"/><line style="stroke:#181818;stroke-width:1;" x1="237.0273" x2="237.0273" y1="226.5007" y2="249.9807"/><polygon fill="#181818" points="233.0273,239.9807,237.0273,249.9807,241.0273,239.9807,237.0273,243.9807" style="stroke:#181818;stroke-width:1;"/><line style="stroke:#181818;stroke-width:1;" x1="120.2314" x2="120.2314" y1="320.6296" y2="344.9541"/><polygon fill="#181818" points="116.2314,334.9541,120.2314,344.9541,124.2314,334.9541,120.2314,338.9541" style="stroke:#181818;stroke-width:1;"/><line style="stroke:#181818;stroke-width:1;" x1="132.2314" x2="239.4629" y1="308.6296" y2="308.6296"/><polygon fill="#181818" points="235.4629,351.8535,239.4629,361.8535,243.4629,351.8535,239.4629,355.8535" style="stroke:#181818;stroke-width:1;"/><line style="stroke:#181818;stroke-width:1;" x1="239.4629" x2="239.4629" y1="308.6296" y2="415.0774"/><line style="stroke:#181818;stroke-width:1;" x1="239.4629" x2="132.2314" y1="415.0774" y2="415.0774"/><polygon fill="#181818" points="142.2314,411.0774,132.2314,415.0774,142.2314,419.0774,138.2314,415.0774" style="stroke:#181818;stroke-width:1;"/><line style="stroke:#181818;stroke-width:1;" x1="120.2314" x2="120.2314" y1="378.7529" y2="403.0774"/><polygon fill="#181818" points="116.2314,393.0774,120.2314,403.0774,124.2314,393.0774,120.2314,397.0774" style="stroke:#181818;stroke-width:1;"/><line style="stroke:#181818;stroke-width:1;" x1="120.2314" x2="120.2314" y1="427.0774" y2="451.5803"/><polygon fill="#181818" points="116.2314,441.5803,120.2314,451.5803,124.2314,441.5803,120.2314,445.5803" style="stroke:#181818;stroke-width:1;"/><line style="stroke:#181818;stroke-width:1;" x1="120.2314" x2="120.2314" y1="485.3792" y2="505.3792"/><polygon fill="#181818" points="116.2314,495.3792,120.2314,505.3792,124.2314,495.3792,120.2314,499.3792" style="stroke:#181818;stroke-width:1;"/><line style="stroke:#181818;stroke-width:1;" x1="353.8232" x2="353.8232" y1="335.7776" y2="388.7756"/><polygon fill="#181818" points="349.8232,378.7756,353.8232,388.7756,357.8232,378.7756,353.8232,382.7756" style="stroke:#181818;stroke-width:1;"/><line style="stroke:#181818;stroke-width:1;" x1="353.8232" x2="353.8232" y1="422.5745" y2="447.0774"/><polygon fill="#181818" points="349.8232,437.0774,353.8232,447.0774,357.8232,437.0774,353.8232,441.0774" style="stroke:#181818;stroke-width:1;"/><line style="stroke:#181818;stroke-width:1;" x1="225.0273" x2="120.2314" y1="261.9807" y2="261.9807"/><line style="stroke:#181818;stroke-width:1;" x1="120.2314" x2="120.2314" y1="261.9807" y2="296.6296"/><polygon fill="#181818" points="116.2314,286.6296,120.2314,296.6296,124.2314,286.6296,120.2314,290.6296" style="stroke:#181818;stroke-width:1;"/><line style="stroke:#181818;stroke-width:1;" x1="249.0273" x2="353.8232" y1="261.9807" y2="261.9807"/><line style="stroke:#181818;stroke-width:1;" x1="353.8232" x2="353.8232" y1="261.9807" y2="301.9788"/><polygon fill="#181818" points="349.8232,291.9788,353.8232,301.9788,357.8232,291.9788,353.8232,295.9788" style="stroke:#181818;stroke-width:1;"/><line style="stroke:#181818;stroke-width:1;" x1="237.0273" x2="237.0273" y1="168.3774" y2="192.7019"/><polygon fill="#181818" points="233.0273,182.7019,237.0273,192.7019,241.0273,182.7019,237.0273,186.7019" style="stroke:#181818;stroke-width:1;"/><line style="stroke:#181818;stroke-width:1;" x1="249.0273" x2="732.5278" y1="156.3774" y2="156.3774"/><polygon fill="#181818" points="728.5278,322.2046,732.5278,332.2046,736.5278,322.2046,732.5278,326.2046" style="stroke:#181818;stroke-width:1;"/><line style="stroke:#181818;stroke-width:1;" x1="732.5278" x2="732.5278" y1="156.3774" y2="527.3792"/><line style="stroke:#181818;stroke-width:1;" x1="732.5278" x2="237.0273" y1="527.3792" y2="527.3792"/><line style="stroke:#181818;stroke-width:1;" x1="237.0273" x2="237.0273" y1="527.3792" y2="547.3792"/><polygon fill="#181818" points="233.0273,537.3792,237.0273,547.3792,241.0273,537.3792,237.0273,541.3792" style="stroke:#181818;stroke-width:1;"/><!--SRC=[RLFRRjf047ttLupKXu2e4RHAHPrU11Iaf6cgbhOlKLKjzc36h7VHUamAtzFFw5j-hECR9O1VhDqzS_RCcRCNCChdSuqpwzWVhfWsn8z_E8j8nKwbgNS1NtBK6WEuKHlbbulGHWYjXNN-B5ngf0KQUFmxHmS67sufuxQKVVzq2o-wbm7yG3Sd4-KcpbR6ic0tra62aU3tzNECoCI2UGuFI1gk3R4FkOc4wMkEuIfREpbTASC8aOY5NPw9FZHQvLBVzRniHMQjH3Hym8NADK-juJkL8WmTANrmFWpBFhSZ5QvYP-MMiTMYwTbqCfsC9-UGredS6ZKSz7elNnsWxgIh4wx9O3gONXwZ3ddwmz7uzVW04LeJ4PCrCzvgQPDKAZkUnyIo_3yeoF70REcSbPDVaC1Rw5rvdbPpr92YY_5Nuj42MWcyQU3TZ7ROQhzl0ozb5gtxHFriUnv0G7Kvm241oRgWe1CAyA5_IbEX6sICtA8sl8Cd6vt-yVrGVi4tbMVX4c6YKKOherP6eX3XRw0Y322LLoKMTIOHl3T8fgv6yMvH2GYeqwbWiMMxxyCxBgl0ist6c7Pjpjsr8yFQDEhR5KaHMd0KBxcMkNy4_aTRH53i3-gZpskcbB38AkmaoLBPP1nQVj8qAkH0QV4GD64iqiM9SV6g38LBcMyQOuQyuswDlpO6dKIWUIK1d1z7uqIfkMelEUD5KdfH6VRKadepOxls_W40]--></g></svg>